# xmcd
#
# Track frame offsets:
#	150
#	14739
#	26230
#	35760
#	46094
#	57057
#	65257
#	75712
#	86688
#	98968
#	109650
#	120245
#	130923
#	142806
#	152437
#	166214
#	173392
#	183469
#	193044
#	204140
#	215598
#	227257
#	237912
#	250739
#	263625
#	280444
#	290546
#	302240
#	311749
#	322685
#	331238
#	344203
#	353439
#	362050
#
# Disc length: 4986 seconds
#
# Revision: 1
# Processed by: cddbd v1.5.2PL0 Copyright (c) Steve Scherf et al.
# Submitted via: audiograbber 1.83.01
#
DISCID=dd137822
DTITLE=Various Artist - Teenage - Teenagers and Youth in Music 1951 - 1960
DYEAR=2011
DGENRE=Beat/Slow
TTITLE0=Cole Nat"King" - Too Young  1951
TTITLE1=Brown Ruth - Wild wild Young Men  1953
TTITLE2=BennettBoyd and his Rockets - Seventeen  1955
TTITLE3=Storm Gale - A Teenage Prayer  1957
TTITLE4=Julian Don and the Meadowlarks - Boogie Woogie Teenage  1956
TTITLE5=Gaylarks The - Teenage Mambo  1956
TTITLE6=Vincent Gene - Teenage Partner  1957
TTITLE7=Sands Tommy - Teenage Crash  1957
TTITLE8=Lymon Frankie and the Teenagers - I'm not a Juvenile Delinquent  1957
TTITLE9=Steele Tommy - Teenage Party  1957
TTITLE10=Nelson Ricky - A Teenagers Romance  1957
TTITLE11=Coasters The - Young Blood
TTITLE12=Carl Steve with the Jags - The Eighteen Year old Blues  1958
TTITLE13=Portuguese Joe - Teen Age Riot 1957
TTITLE14=Berry Chuck - Sweet little Sixteen  1958
TTITLE15=Cochran Eddie - Teenage Cutie  1972
TTITLE16=Cash Johnny - Ballad of Teenage Queen  1958
TTITLE17=Summers Gene - School of Rock 'n' Roll  1958
TTITLE18=Casey Al and the Bats - (Got the) Teen-Age Blues  1958
TTITLE19=Lewis Jerry Lee - High School Confidential  1958
TTITLE20=Edwards Dean  - A Teenager sings the Blues  1959
TTITLE21=Chesternuts The  Five - Teenage Love  1958
TTITLE22=Luther Lord - I was a Teenage Creature  1958
TTITLE23=Crests The  - Sixteen Candles  1958
TTITLE24=Rogersd Juanita and LynnHollings withMr. V'S five Joys - A Teenager's Le
TTITLE24=tter of Promises  1959
TTITLE25=Facenda Tommy - High School U.S.A  1958
TTITLE26=Dion and the Belmonts - A Teenager in Love  1959
TTITLE27=McFadden Bob and Dor - The Beat Genaration  1959
TTITLE28=Nelson Sandy - Teen Beat  1959
TTITLE29=Perkins Reggie - High School Ceasar  1959
TTITLE30=Johns Phil and the Lonely Ones - Ballad of a Juvenile Delinquent  1960
TTITLE31=Eddy Juane and The Rebels - Because they're Young  1960
TTITLE32=Martin Janis - Teen Street  1961
TTITLE33=Dinning Mark - Teen Angel  1960
EXTD=
EXTT0=
EXTT1=
EXTT2=
EXTT3=
EXTT4=
EXTT5=
EXTT6=
EXTT7=
EXTT8=
EXTT9=
EXTT10=
EXTT11=
EXTT12=
EXTT13=
EXTT14=
EXTT15=
EXTT16=
EXTT17=
EXTT18=
EXTT19=
EXTT20=
EXTT21=
EXTT22=
EXTT23=
EXTT24=
EXTT25=
EXTT26=
EXTT27=
EXTT28=
EXTT29=
EXTT30=
EXTT31=
EXTT32=
EXTT33=
PLAYORDER=
